<svg xmlns="http://www.w3.org/2000/svg" width="40.43835573488116" height="40.438355734881156" style=""><rect id="backgroundrect" width="100%" height="100%" x="0" y="0" fill="none" stroke="none" class="" style=""/><g class="currentLayer" style=""><title>Layer 1</title><path d="M18.1811261177063,27.17808222770691 a1.1902587413787842,1.2739726305007935 0 0 0 1.1902587413787842,-1.2739726305007935 V18.260273814201355 a1.1902587413787842,1.2739726305007935 0 0 0 -2.3805174827575684,0 v7.643835783004761 A1.1902587413787842,1.2739726305007935 0 0 0 18.1811261177063,27.17808222770691 zM30.08371353149414,11.890410661697388 H25.322678565979004 V10.616438031196594 a3.5707762241363525,3.8219178915023804 0 0 0 -3.5707762241363525,-3.8219178915023804 H19.371384859085083 A3.5707762241363525,3.8219178915023804 0 0 0 15.80060863494873,10.616438031196594 V11.890410661697388 H11.039573669433594 A1.1902587413787842,1.2739726305007935 0 0 0 11.039573669433594,14.438355922698975 H12.229832410812378 V28.452054858207703 a3.5707762241363525,3.8219178915023804 0 0 0 3.5707762241363525,3.8219178915023804 h9.522069931030273 a3.5707762241363525,3.8219178915023804 0 0 0 3.5707762241363525,-3.8219178915023804 V14.438355922698975 h1.1902587413787842 a1.1902587413787842,1.2739726305007935 0 0 0 0,-2.547945261001587 zM18.1811261177063,10.616438031196594 a1.1902587413787842,1.2739726305007935 0 0 1 1.1902587413787842,-1.2739726305007935 h2.3805174827575684 a1.1902587413787842,1.2739726305007935 0 0 1 1.1902587413787842,1.2739726305007935 V11.890410661697388 H18.1811261177063 zm8.33181118965149,17.83561682701111 a1.1902587413787842,1.2739726305007935 0 0 1 -1.1902587413787842,1.2739726305007935 H15.80060863494873 a1.1902587413787842,1.2739726305007935 0 0 1 -1.1902587413787842,-1.2739726305007935 V14.438355922698975 H26.512937307357788 zm-3.5707762241363525,-1.2739726305007935 a1.1902587413787842,1.2739726305007935 0 0 0 1.1902587413787842,-1.2739726305007935 V18.260273814201355 a1.1902587413787842,1.2739726305007935 0 0 0 -2.3805174827575684,0 v7.643835783004761 A1.1902587413787842,1.2739726305007935 0 0 0 22.942161083221436,27.17808222770691 z" id="svg_1" class="" fill="#0b0bd5" fill-opacity="1"/></g></svg>